<svg width="100" height="100" viewBox="0 0 100 100" fill="none" xmlns="http://www.w3.org/2000/svg">
<path d="M91.125 87.5V87H90.625H81.75V81.25V80.75H81.25H75H74.5V81.25V87H66.125V81.25V80.75H65.625H59.375H58.875V81.25V87H50.5V81.25V80.75H50H43.75H43.25V81.25V87H34.875V81.25V80.75H34.375H28.125H27.625V81.25V87H19.25V12.5V12H18.75H12.5H12V12.5V93.75V94.25H12.5H90.625H91.125V93.75V87.5ZM62.5 61.25L62.4978 61.25C60.512 61.2588 58.61 62.0516 57.2058 63.4558C55.8016 64.86 55.0088 66.762 55 68.7478V68.75C55 70.2334 55.4399 71.6834 56.264 72.9168C57.0881 74.1502 58.2594 75.1114 59.6299 75.6791C61.0003 76.2468 62.5083 76.3953 63.9632 76.1059C65.418 75.8165 66.7544 75.1022 67.8033 74.0533C68.8522 73.0044 69.5665 71.668 69.8559 70.2132C70.1453 68.7583 69.9968 67.2503 69.4291 65.8799C68.8614 64.5094 67.9002 63.3381 66.6668 62.514C65.4334 61.6899 63.9834 61.25 62.5 61.25ZM78.1236 39.875H78.125C80.4489 39.875 82.7207 39.1859 84.653 37.8948C86.5852 36.6037 88.0913 34.7686 88.9806 32.6215C89.8699 30.4745 90.1026 28.112 89.6492 25.8327C89.1958 23.5534 88.0768 21.4598 86.4335 19.8165C84.7902 18.1732 82.6966 17.0541 80.4173 16.6008C78.138 16.1474 75.7755 16.3801 73.6285 17.2694C71.4814 18.1587 69.6463 19.6648 68.3552 21.597C67.0641 23.5293 66.375 25.8011 66.375 28.125L66.375 28.1264C66.3836 31.2397 67.6242 34.223 69.8256 36.4244C72.027 38.6258 75.0103 39.8664 78.1236 39.875ZM31.25 77.75C33.03 77.75 34.7701 77.2222 36.2501 76.2332C37.7302 75.2443 38.8837 73.8387 39.5649 72.1942C40.2461 70.5496 40.4243 68.74 40.0771 66.9942C39.7298 65.2484 38.8726 63.6447 37.614 62.386C36.3553 61.1274 34.7516 60.2702 33.0058 59.9229C31.26 59.5757 29.4504 59.7539 27.8058 60.4351C26.1613 61.1163 24.7557 62.2698 23.7668 63.7499C22.7778 65.2299 22.25 66.97 22.25 68.75C22.25 71.1369 23.1982 73.4261 24.886 75.114C26.5739 76.8018 28.8631 77.75 31.25 77.75ZM46.875 60.0938C50.1075 60.0938 53.2674 59.1352 55.9551 57.3393C58.6428 55.5435 60.7376 52.9909 61.9747 50.0045C63.2117 47.0181 63.5353 43.7319 62.9047 40.5615C62.2741 37.3911 60.7175 34.4789 58.4318 32.1932C56.1461 29.9075 53.2339 28.3509 50.0635 27.7203C46.8931 27.0897 43.6069 27.4133 40.6205 28.6503C37.6341 29.8874 35.0815 31.9822 33.2857 34.6699C31.4898 37.3576 30.5313 40.5175 30.5312 43.75C30.5312 48.0846 32.2532 52.2417 35.3182 55.3068C38.3833 58.3718 42.5404 60.0938 46.875 60.0938Z" fill="#666666" stroke="#666666"/>
</svg>
