<svg width="100" height="100" viewBox="0 0 100 100" fill="none" xmlns="http://www.w3.org/2000/svg">
<path d="M82.8127 1.5625C79.7224 1.5625 76.7014 2.47889 74.1319 4.19579C71.5624 5.91268 69.5597 8.35298 68.3771 11.2081C67.1945 14.0632 66.885 17.2048 67.4879 20.2358C68.0908 23.2667 69.579 26.0508 71.7642 28.236C73.9494 30.4212 76.7335 31.9094 79.7644 32.5123C82.7954 33.1152 85.937 32.8057 88.7921 31.6231C91.6472 30.4405 94.0875 28.4378 95.8044 25.8683C97.5213 23.2988 98.4377 20.2778 98.4377 17.1875C98.4377 13.0435 96.7915 9.06921 93.8613 6.13896C90.931 3.2087 86.9567 1.5625 82.8127 1.5625ZM84.3752 18.75C84.3752 19.0072 84.3118 19.2604 84.1905 19.4872C84.0692 19.7139 83.8938 19.9073 83.6799 20.05L78.9924 23.175L77.258 20.575L81.2502 17.9141V6.25H84.3752V18.75ZM53.9971 70.9828C55.6249 68.1137 56.3928 64.8368 56.209 61.5433C56.0252 58.2497 54.8974 55.0786 52.9604 52.4085C51.0234 49.7383 48.359 47.6821 45.2851 46.485C42.2112 45.288 38.8578 45.0009 35.6252 45.6578L36.2502 48.7188C38.2933 48.304 40.4031 48.3483 42.427 48.8485C44.4509 49.3487 46.3384 50.2922 47.9531 51.6109C49.5679 52.9296 50.8695 54.5905 51.764 56.4737C52.6584 58.3569 53.1234 60.4152 53.1252 62.5C53.1175 64.6495 52.6115 66.768 51.6471 68.6891L49.0971 66.1375L46.3627 77.075L57.3002 74.3406L53.8627 70.9031L53.9971 70.9828ZM39.0627 76.5625C35.3344 76.5584 31.7599 75.0755 29.1236 72.4391C26.4872 69.8028 25.0043 66.2283 25.0002 62.5C25.0079 60.3505 25.5139 58.232 26.4783 56.3109L29.0283 58.8625L31.7627 47.925L20.8252 50.6594L24.2627 54.0969L24.1299 54.0203C22.5031 56.8892 21.7361 60.1655 21.9203 63.4584C22.1046 66.7512 23.2323 69.9215 25.1689 72.591C27.1056 75.2605 29.7694 77.3165 32.8424 78.5135C35.9155 79.7106 39.2681 79.9983 42.5002 79.3422L41.8752 76.2812C40.9494 76.4687 40.0072 76.5629 39.0627 76.5625Z" fill="#666666"/>
<path d="M4.09021 98.9375H4.09047H74.0342H74.0345C74.3859 98.9373 74.7315 98.8473 75.0384 98.6761C75.3453 98.5048 75.6033 98.258 75.788 97.9591C75.9727 97.6601 76.078 97.3189 76.0938 96.9678C76.1096 96.6167 76.0355 96.2674 75.8784 95.9531L75.8783 95.953L70.8123 85.8195V40.625C70.8123 40.078 70.5951 39.5534 70.2083 39.1666C69.8215 38.7798 69.2969 38.5625 68.7498 38.5625H9.37485C8.82784 38.5625 8.30324 38.7798 7.91644 39.1666C7.52965 39.5534 7.31235 40.078 7.31235 40.625V85.8195L2.24637 95.953L2.24633 95.9531C2.08924 96.2674 2.01509 96.6167 2.0309 96.9678C2.04671 97.3189 2.15197 97.6601 2.33668 97.9591C2.5214 98.258 2.77944 98.5049 3.08633 98.6761C3.39322 98.8473 3.73878 98.9373 4.09021 98.9375ZM11.4374 42.6875H66.6873V82.3125H11.4374V42.6875Z" fill="#666666" stroke="#666666"/>
</svg>
