<svg width="100" height="100" viewBox="0 0 100 100" fill="none" xmlns="http://www.w3.org/2000/svg">
<path d="M41.7657 65.2188C41.2657 64.7344 40.6251 64.4687 39.9376 64.4687C39.4129 64.4658 38.8994 64.6203 38.4635 64.9123C38.0276 65.2043 37.6893 65.6204 37.4924 66.1067C37.2955 66.593 37.2491 67.1273 37.3591 67.6403C37.4691 68.1533 37.7305 68.6215 38.1094 68.9844L44.4844 75.1719C44.9844 75.6563 45.6251 75.9219 46.3126 75.9219C47.0313 75.9219 47.7032 75.6406 48.2032 75.125L61.9532 60.9688C62.312 60.5979 62.554 60.13 62.6494 59.6228C62.7447 59.1157 62.6891 58.5918 62.4894 58.116C62.2898 57.6402 61.9549 57.2335 61.5263 56.9462C61.0977 56.6589 60.5942 56.5038 60.0782 56.5C59.3594 56.5 58.6876 56.7812 58.1876 57.2969L46.2657 69.5781L41.7657 65.2188Z" fill="#666666"/>
<mask id="path-2-inside-1_108_4470" fill="white">
<path d="M88.8281 37.0781C89.0781 35.9688 89.2031 34.8281 89.2031 33.6719C89.2031 25.0469 82.1875 18.0156 73.5469 18.0156C72.2812 18.0156 71.0312 18.1719 69.8125 18.4688C67.5781 7.8125 58.1094 0 47.0781 0C35.0469 0 25.1875 9 23.9531 20.7812H23.75C12.0781 20.7812 2.57812 30.2812 2.57812 41.9531C2.57812 52.5781 10.4531 61.375 20.6719 62.8594V65.9688C20.6719 72.9062 23.1094 79.5469 27.5313 84.6562C32.7656 90.7031 39.8594 95.7656 48.6094 99.7031C49.0469 99.8906 49.5156 100 49.9844 100C50.4688 100 50.9219 99.9062 51.3594 99.7031C60.1094 95.7656 67.2031 90.7031 72.4375 84.6562C76.8594 79.5469 79.2969 72.9062 79.2969 65.9688V63.1094H83.9219C91.3594 63.1094 97.4062 57.0625 97.4062 49.6406C97.4104 46.9258 96.5933 44.2731 95.0624 42.0311C93.5315 39.7891 91.3582 38.0625 88.8281 37.0781ZM72.5938 65.9688C72.5938 71.2969 70.7344 76.3594 67.375 80.25C63.0625 85.2344 57.2188 89.5 50 92.9219C42.7812 89.5 36.9375 85.2344 32.625 80.25C29.25 76.3594 27.4063 71.2812 27.4063 65.9688V49.5625C37.4531 48.4375 45.1562 43.9219 50 40.1406C54.8438 43.9219 62.5469 48.4375 72.5938 49.5625V65.9688ZM83.9375 56.9688H79.3125V46.4375C79.3125 44.625 77.8906 43.1406 76.0625 43.0781C65.1406 42.6875 57.0625 37.5156 52.2031 33.25C51.5866 32.7174 50.7991 32.4243 49.9844 32.4243C49.1697 32.4243 48.3821 32.7174 47.7656 33.25C42.9062 37.5156 34.8281 42.6875 23.9062 43.0781C22.0938 43.1406 20.6719 44.625 20.6719 46.4375V56.6562C13.8594 55.2344 8.71875 49.1875 8.71875 41.9531C8.71875 33.6562 15.4688 26.9219 23.75 26.9219C24.6406 26.9219 25.5312 27 26.3906 27.1562C26.8576 27.2371 27.3368 27.2102 27.7918 27.0775C28.2468 26.9448 28.6654 26.7098 29.0156 26.3906C29.7188 25.7344 30.0781 24.7812 29.9844 23.8281C29.9688 23.6562 29.9688 23.5 29.9688 23.25C29.9688 13.8281 37.6406 6.15625 47.0781 6.15625C56.2969 6.15625 63.9688 13.6562 64.1562 22.8594C64.1875 23.9375 64.7812 24.9375 65.7188 25.4687C66.1719 25.7187 66.7031 25.8594 67.2188 25.8594C67.7656 25.8594 68.2969 25.7188 68.7656 25.4375C70.2031 24.5938 71.8437 24.1562 73.5312 24.1562C75.1493 24.1576 76.7403 24.5713 78.1541 25.3583C79.5679 26.1452 80.7578 27.2794 81.6116 28.6539C82.4653 30.0284 82.9548 31.5977 83.0337 33.2138C83.1126 34.83 82.7783 36.4395 82.0625 37.8906C81.8372 38.3391 81.7253 38.8359 81.7366 39.3377C81.7479 39.8394 81.8819 40.3308 82.1271 40.7687C82.3723 41.2066 82.721 41.5777 83.1429 41.8496C83.5647 42.1214 84.0468 42.2857 84.5469 42.3281C88.3125 42.6406 91.2812 45.8594 91.2812 49.6562C91.2812 53.6875 87.9844 56.9688 83.9375 56.9688Z"/>
</mask>
<path d="M88.8281 37.0781L81.0238 35.3194L79.51 42.0369L85.9274 44.5337L88.8281 37.0781ZM69.8125 18.4688L61.9828 20.1105L63.6783 28.1969L71.7059 26.2415L69.8125 18.4688ZM23.9531 20.7812V28.7812H31.1587L31.9096 21.6149L23.9531 20.7812ZM20.6719 62.8594H28.6719V55.9375L21.8219 54.9425L20.6719 62.8594ZM27.5313 84.6562L21.4821 89.8915L21.4826 89.8921L27.5313 84.6562ZM48.6094 99.7031L45.3265 106.998L45.392 107.028L45.458 107.056L48.6094 99.7031ZM51.3594 99.7031L48.0765 92.4078L48.0334 92.4271L47.9905 92.4471L51.3594 99.7031ZM72.4375 84.6562L78.4861 89.8921L78.4867 89.8915L72.4375 84.6562ZM79.2969 63.1094V55.1094H71.2969V63.1094H79.2969ZM97.4062 49.6406L89.4062 49.6284V49.6406H97.4062ZM67.375 80.25L73.4249 85.4844L73.4301 85.4783L67.375 80.25ZM50 92.9219L46.5733 100.151L50 101.775L53.4267 100.151L50 92.9219ZM32.625 80.25L38.6749 75.0156L38.6681 75.0078L32.625 80.25ZM27.4063 49.5625L26.516 41.6122L19.4063 42.4083V49.5625H27.4063ZM50 40.1406L54.9228 33.8346L50 29.9916L45.0772 33.8346L50 40.1406ZM72.5938 49.5625H80.5938V42.4083L73.484 41.6122L72.5938 49.5625ZM79.3125 56.9688H71.3125V64.9688H79.3125V56.9688ZM76.0625 43.0781L75.7766 51.073L75.7892 51.0735L76.0625 43.0781ZM52.2031 33.25L57.4807 27.2378L57.4571 27.217L57.4333 27.1965L52.2031 33.25ZM49.9844 32.4243L49.9844 40.4243L49.9844 32.4243ZM47.7656 33.25L42.5354 27.1965L42.5116 27.217L42.488 27.2378L47.7656 33.25ZM23.9062 43.0781L24.1819 51.0734L24.1922 51.073L23.9062 43.0781ZM20.6719 56.6562L19.0374 64.4875L28.6719 66.4984V56.6562H20.6719ZM26.3906 27.1562L24.9595 35.0272L24.9925 35.0332L25.0256 35.0389L26.3906 27.1562ZM29.0156 26.3906L34.4044 32.3035L34.4395 32.2715L34.4742 32.2391L29.0156 26.3906ZM29.9844 23.8281L22.0172 24.5524L22.0199 24.5818L22.0228 24.6112L29.9844 23.8281ZM64.1562 22.8594L56.1579 23.0223L56.1586 23.0567L56.1596 23.0912L64.1562 22.8594ZM65.7188 25.4687L61.7746 32.4289L61.8143 32.4514L61.8541 32.4734L65.7188 25.4687ZM68.7656 25.4375L64.716 18.5382L64.6827 18.5577L64.6497 18.5776L68.7656 25.4375ZM73.5312 24.1562L73.5381 16.1562H73.5312V24.1562ZM82.0625 37.8906L89.2113 41.4815L89.2243 41.4557L89.237 41.4298L82.0625 37.8906ZM84.5469 42.3281L83.8714 50.2996L83.8852 50.3007L84.5469 42.3281ZM96.6324 38.8368C97.0155 37.1368 97.2031 35.4058 97.2031 33.6719H81.2031C81.2031 34.2504 81.1407 34.8007 81.0238 35.3194L96.6324 38.8368ZM97.2031 33.6719C97.2031 20.6338 86.611 10.0156 73.5469 10.0156V26.0156C77.764 26.0156 81.2031 29.46 81.2031 33.6719H97.2031ZM73.5469 10.0156C71.6201 10.0156 69.7347 10.2538 67.9191 10.696L71.7059 26.2415C72.3278 26.09 72.9424 26.0156 73.5469 26.0156V10.0156ZM77.6422 16.827C74.6379 2.49854 61.9283 -8 47.0781 -8V8C54.2905 8 60.5184 13.1265 61.9828 20.1105L77.6422 16.827ZM47.0781 -8C30.934 -8 17.656 4.11037 15.9967 19.9476L31.9096 21.6149C32.719 13.8896 39.1598 8 47.0781 8V-8ZM23.9531 12.7812H23.75V28.7812H23.9531V12.7812ZM23.75 12.7812C7.65985 12.7812 -5.42188 25.863 -5.42188 41.9531H10.5781C10.5781 34.6995 16.4964 28.7812 23.75 28.7812V12.7812ZM-5.42188 41.9531C-5.42188 56.6246 5.4424 68.7311 19.5219 70.7763L21.8219 54.9425C15.4638 54.0189 10.5781 48.5317 10.5781 41.9531H-5.42188ZM12.6719 62.8594V65.9688H28.6719V62.8594H12.6719ZM12.6719 65.9688C12.6719 74.7728 15.7656 83.2862 21.4821 89.8915L33.5804 79.421C30.4531 75.8075 28.6719 71.0397 28.6719 65.9688H12.6719ZM21.4826 89.8921C27.6157 96.9771 35.7256 102.678 45.3265 106.998L51.8923 92.4078C43.9932 88.8532 37.9156 84.4291 33.5799 79.4204L21.4826 89.8921ZM45.458 107.056C46.7419 107.607 48.2806 108 49.9844 108V92C50.7506 92 51.3519 92.1747 51.7607 92.35L45.458 107.056ZM49.9844 108C51.5567 108 53.1687 107.683 54.7283 106.959L47.9905 92.4471C48.6751 92.1292 49.3808 92 49.9844 92V108ZM54.6423 106.998C64.2432 102.678 72.3531 96.9771 78.4861 89.8921L66.3889 79.4204C62.0532 84.4291 55.9756 88.8532 48.0765 92.4078L54.6423 106.998ZM78.4867 89.8915C84.2031 83.2862 87.2969 74.7728 87.2969 65.9688H71.2969C71.2969 71.0397 69.5156 75.8075 66.3883 79.421L78.4867 89.8915ZM87.2969 65.9688V63.1094H71.2969V65.9688H87.2969ZM79.2969 71.1094H83.9219V55.1094H79.2969V71.1094ZM83.9219 71.1094C95.7716 71.1094 105.406 61.4868 105.406 49.6406H89.4062C89.4062 52.6382 86.9471 55.1094 83.9219 55.1094V71.1094ZM105.406 49.6528C105.413 45.3241 104.11 41.0946 101.669 37.5198L88.4557 46.5424C89.0766 47.4517 89.4079 48.5274 89.4063 49.6284L105.406 49.6528ZM101.669 37.5198C99.2281 33.945 95.763 31.1921 91.7288 29.6225L85.9274 44.5337C86.9535 44.9329 87.8348 45.6331 88.4557 46.5424L101.669 37.5198ZM64.5938 65.9688C64.5938 69.4385 63.3852 72.6298 61.3199 75.0217L73.4301 85.4783C78.0836 80.089 80.5938 73.1553 80.5938 65.9688H64.5938ZM61.3251 75.0156C57.8741 79.0043 52.9936 82.6496 46.5733 85.6929L53.4267 100.151C61.4439 96.3504 68.2509 91.4644 73.4249 85.4844L61.3251 75.0156ZM53.4267 85.6929C47.0064 82.6496 42.1259 79.0043 38.6749 75.0156L26.5751 85.4844C31.7491 91.4644 38.5561 96.3504 46.5733 100.151L53.4267 85.6929ZM38.6681 75.0078C36.6103 72.6356 35.4063 69.4411 35.4063 65.9688H19.4063C19.4063 73.1214 21.8897 80.0831 26.5819 85.4922L38.6681 75.0078ZM35.4063 65.9688V49.5625H19.4063V65.9688H35.4063ZM28.2965 57.5128C40.2606 56.1731 49.327 50.815 54.9228 46.4467L45.0772 33.8346C40.9855 37.0287 34.6457 40.7019 26.516 41.6122L28.2965 57.5128ZM45.0772 46.4467C50.673 50.815 59.7394 56.1731 71.7035 57.5128L73.484 41.6122C65.3543 40.7019 59.0145 37.0287 54.9228 33.8346L45.0772 46.4467ZM64.5938 49.5625V65.9688H80.5938V49.5625H64.5938ZM83.9375 48.9688H79.3125V64.9688H83.9375V48.9688ZM87.3125 56.9688V46.4375H71.3125V56.9688H87.3125ZM87.3125 46.4375C87.3125 40.3276 82.4878 35.2931 76.3358 35.0828L75.7892 51.0735C73.2935 50.9881 71.3125 48.9224 71.3125 46.4375H87.3125ZM76.3484 35.0832C67.9001 34.7811 61.5177 30.7814 57.4807 27.2378L46.9255 39.2622C52.6073 44.2498 62.3812 50.5939 75.7766 51.073L76.3484 35.0832ZM57.4333 27.1965C55.3636 25.4082 52.7196 24.4243 49.9844 24.4243L49.9844 40.4243C48.8786 40.4243 47.8097 40.0265 46.9729 39.3035L57.4333 27.1965ZM49.9844 24.4243C47.2491 24.4243 44.6052 25.4082 42.5354 27.1965L52.9958 39.3035C52.1591 40.0265 51.0902 40.4243 49.9844 40.4243V24.4243ZM42.488 27.2378C38.4511 30.7814 32.0687 34.7811 23.6203 35.0832L24.1922 51.073C37.5876 50.5939 47.3614 44.2498 53.0432 39.2622L42.488 27.2378ZM23.6306 35.0829C17.4726 35.2952 12.6719 40.3512 12.6719 46.4375H28.6719C28.6719 48.8988 26.7149 50.986 24.1819 51.0734L23.6306 35.0829ZM12.6719 46.4375V56.6562H28.6719V46.4375H12.6719ZM22.3064 48.825C19.1136 48.1586 16.7187 45.3093 16.7187 41.9531H0.71875C0.71875 53.0657 8.60518 62.3101 19.0374 64.4875L22.3064 48.825ZM16.7187 41.9531C16.7187 38.0799 19.8816 34.9219 23.75 34.9219V18.9219C11.0559 18.9219 0.71875 29.2326 0.71875 41.9531H16.7187ZM23.75 34.9219C24.1787 34.9219 24.5897 34.96 24.9595 35.0272L27.8217 19.2853C26.4728 19.04 25.1026 18.9219 23.75 18.9219V34.9219ZM25.0256 35.0389C26.694 35.3278 28.4063 35.2316 30.0318 34.7575L25.5518 19.3975C26.2674 19.1888 27.0212 19.1464 27.7557 19.2736L25.0256 35.0389ZM30.0318 34.7575C31.6573 34.2834 33.1529 33.444 34.4044 32.3035L23.6269 20.4778C24.1778 19.9757 24.8362 19.6062 25.5518 19.3975L30.0318 34.7575ZM34.4742 32.2391C36.9963 29.8851 38.284 26.4813 37.946 23.045L22.0228 24.6112C21.8723 23.0812 22.4412 21.5837 23.5571 20.5422L34.4742 32.2391ZM37.9515 23.1038C37.9577 23.1718 37.962 23.2345 37.9648 23.2896C37.9675 23.3429 37.9685 23.3814 37.9689 23.3982C37.9692 23.4129 37.969 23.4126 37.9689 23.3844C37.9688 23.3541 37.9688 23.3171 37.9688 23.25H21.9688C21.9688 23.4168 21.9626 23.9518 22.0172 24.5524L37.9515 23.1038ZM37.9688 23.25C37.9688 18.2512 42.0541 14.1562 47.0781 14.1562V-1.84375C33.2271 -1.84375 21.9688 9.40509 21.9688 23.25H37.9688ZM47.0781 14.1562C51.9568 14.1562 56.0594 18.1878 56.1579 23.0223L72.1546 22.6964C71.8781 9.12472 60.6369 -1.84375 47.0781 -1.84375V14.1562ZM56.1596 23.0912C56.2707 26.9223 58.3642 30.4963 61.7746 32.4289L69.6629 18.5086C71.1983 19.3787 72.1043 20.9527 72.1529 22.6276L56.1596 23.0912ZM61.8541 32.4734C63.4545 33.3563 65.3108 33.8594 67.2188 33.8594V17.8594C68.0955 17.8594 68.8892 18.0812 69.5834 18.4641L61.8541 32.4734ZM67.2188 33.8594C69.1499 33.8594 71.1144 33.3578 72.8816 32.2974L64.6497 18.5776C65.4793 18.0797 66.3813 17.8594 67.2188 17.8594V33.8594ZM72.8152 32.3368C72.9939 32.232 73.2312 32.1562 73.5312 32.1562V16.1562C70.4563 16.1562 67.4123 16.9555 64.716 18.5382L72.8152 32.3368ZM73.5244 32.1562C73.783 32.1565 74.0373 32.2226 74.2633 32.3484L82.0449 18.3681C79.4433 16.92 76.5156 16.1588 73.5381 16.1563L73.5244 32.1562ZM74.2633 32.3484C74.4892 32.4741 74.6794 32.6554 74.8159 32.8751L88.4073 24.4327C86.8362 21.9034 84.6465 19.8162 82.0449 18.3681L74.2633 32.3484ZM74.8159 32.8751C74.9524 33.0948 75.0306 33.3456 75.0432 33.6039L91.0242 32.8238C90.879 29.8498 89.9783 26.9619 88.4073 24.4327L74.8159 32.8751ZM75.0432 33.6039C75.0558 33.8622 75.0024 34.1195 74.888 34.3514L89.237 41.4298C90.5543 38.7596 91.1693 35.7977 91.0242 32.8238L75.0432 33.6039ZM74.9137 34.2997C74.1015 35.9167 73.698 37.7082 73.7386 39.5172L89.7346 39.1581C89.7527 39.9637 89.573 40.7615 89.2113 41.4815L74.9137 34.2997ZM73.7386 39.5172C73.7792 41.3263 74.2627 43.0978 75.1466 44.6767L89.1076 36.8606C89.5012 37.5637 89.7165 38.3526 89.7346 39.1581L73.7386 39.5172ZM75.1466 44.6767C76.0306 46.2556 77.2881 47.5938 78.8092 48.5741L87.4766 35.1251C88.1539 35.5616 88.7139 36.1575 89.1076 36.8606L75.1466 44.6767ZM78.8092 48.5741C80.3302 49.5543 82.0683 50.1468 83.8714 50.2996L85.2224 34.3567C86.0253 34.4247 86.7993 34.6886 87.4766 35.1251L78.8092 48.5741ZM83.8852 50.3007C83.6565 50.2817 83.5082 50.1775 83.4387 50.102C83.3682 50.0254 83.2812 49.8727 83.2812 49.6562H99.2812C99.2812 41.7012 93.1252 35.0125 85.2085 34.3555L83.8852 50.3007ZM83.2812 49.6562C83.2812 49.236 83.5994 48.9688 83.9375 48.9688V64.9688C92.3693 64.9688 99.2812 58.139 99.2812 49.6562H83.2812Z" fill="#666666" mask="url(#path-2-inside-1_108_4470)"/>
</svg>
